<svg width="375" height="207" viewBox="0 0 375 207" fill="none" xmlns="http://www.w3.org/2000/svg">
<circle cx="310.315" cy="58.9932" r="58.9932" transform="rotate(90 310.315 58.9932)" fill="url(#paint0_radial)"/>
<circle opacity="0.5" cx="183.736" cy="134.022" r="37.3835" transform="rotate(90 183.736 134.022)" stroke="#FFFBFB" stroke-width="10"/>
<circle cx="231.849" cy="12.6006" r="3.4365" transform="rotate(90 231.849 12.6006)" fill="#2AF4D5"/>
<circle cx="96.106" cy="179.271" r="1.71825" transform="rotate(90 96.106 179.271)" fill="#F2F2F2"/>
<circle cx="178.011" cy="57.2743" r="12.6005" transform="rotate(90 178.011 57.2743)" fill="#56CCF2"/>
<circle cx="300.005" cy="170.107" r="19.6282" transform="rotate(90 300.005 170.107)" stroke="#56CCF2" stroke-width="10"/>
<circle cx="135.052" cy="267.473" r="146.051" transform="rotate(90 135.052 267.473)" fill="url(#paint1_radial)"/>
<circle cx="94.3878" cy="80.1845" r="13.3915" transform="rotate(90 94.3878 80.1845)" stroke="#2AF4D5" stroke-width="3"/>
<circle cx="267.931" cy="100.231" r="6.94575" transform="rotate(90 267.931 100.231)" stroke="#2AF4D5"/>
<defs>
<radialGradient id="paint0_radial" cx="0" cy="0" r="1" gradientUnits="userSpaceOnUse" gradientTransform="translate(310.315 58.9932) rotate(90) scale(58.9932)">
<stop offset="0.694738" stop-color="#00D1FF" stop-opacity="0"/>
<stop offset="1" stop-color="#5AE1FF" stop-opacity="0.11"/>
</radialGradient>
<radialGradient id="paint1_radial" cx="0" cy="0" r="1" gradientUnits="userSpaceOnUse" gradientTransform="translate(135.052 267.473) rotate(90) scale(146.051)">
<stop offset="0.826779" stop-color="#00D1FF" stop-opacity="0"/>
<stop offset="1" stop-color="#5AE1FF" stop-opacity="0.18"/>
</radialGradient>
</defs>
</svg>
